<?xml version="1.0" encoding="UTF-8" standalone="no"?>
<!-- Generator: Adobe Illustrator 18.0.0, SVG Export Plug-In . SVG Version: 6.00 Build 0)  -->

<svg
   xmlns:dc="http://purl.org/dc/elements/1.1/"
   xmlns:cc="http://creativecommons.org/ns#"
   xmlns:rdf="http://www.w3.org/1999/02/22-rdf-syntax-ns#"
   xmlns:svg="http://www.w3.org/2000/svg"
   xmlns="http://www.w3.org/2000/svg"
   xmlns:sodipodi="http://sodipodi.sourceforge.net/DTD/sodipodi-0.dtd"
   xmlns:inkscape="http://www.inkscape.org/namespaces/inkscape"
   version="1.1"
   id="Capa_1"
   x="0px"
   y="0px"
   viewBox="0 0 443.69 443.69"
   style="enable-background:new 0 0 443.69 443.69;"
   xml:space="preserve"
   width="512px"
   height="512px"
   sodipodi:docname="waffle.svg"
   inkscape:version="0.92.1 r"><metadata
     id="metadata63"><rdf:RDF><cc:Work
         rdf:about=""><dc:format>image/svg+xml</dc:format><dc:type
           rdf:resource="http://purl.org/dc/dcmitype/StillImage" /><dc:title /></cc:Work></rdf:RDF></metadata><defs
     id="defs61" /><sodipodi:namedview
     pagecolor="#ffffff"
     bordercolor="#666666"
     borderopacity="1"
     objecttolerance="10"
     gridtolerance="10"
     guidetolerance="10"
     inkscape:pageopacity="0"
     inkscape:pageshadow="2"
     inkscape:window-width="1364"
     inkscape:window-height="749"
     id="namedview59"
     showgrid="false"
     inkscape:pagecheckerboard="true"
     inkscape:zoom="0.921875"
     inkscape:cx="8.6145307"
     inkscape:cy="252.87454"
     inkscape:window-x="0"
     inkscape:window-y="17"
     inkscape:window-maximized="0"
     inkscape:current-layer="layer3" /><g
     id="g28" /><g
     id="g30" /><g
     id="g32" /><g
     id="g34" /><g
     id="g36" /><g
     id="g38" /><g
     id="g40" /><g
     id="g42" /><g
     id="g44" /><g
     id="g46" /><g
     id="g48" /><g
     id="g50" /><g
     id="g52" /><g
     id="g54" /><g
     id="g56" /><g
     inkscape:groupmode="layer"
     id="layer1"
     inkscape:label="Layer 1"><circle
       id="path3790"
       cx="221.845"
       cy="221.84499"
       style="stroke-width:1.47970986;fill:#ffd42a"
       r="221.845" /></g><g
     inkscape:groupmode="layer"
     id="layer2"
     inkscape:label="Layer 2"><g
       id="g26"
       transform="translate(0,-0.001)"><path
         style="fill:#c79532"
         inkscape:connector-curvature="0"
         d="m 221.845,24.893 c -108.6,0 -196.953,88.353 -196.953,196.952 0,108.599 88.353,196.952 196.953,196.952 108.6,0 196.952,-88.353 196.952,-196.952 0,-108.599 -88.352,-196.952 -196.952,-196.952 z m 0,379.904 c -100.88,0 -182.953,-82.072 -182.953,-182.952 0,-100.88 82.073,-182.952 182.953,-182.952 100.88,0 182.952,82.072 182.952,182.952 0,100.88 -82.072,182.952 -182.952,182.952 z"
         id="path2" /><path
         style="fill:#c79532"
         inkscape:connector-curvature="0"
         d="M 378.714,64.977 C 336.812,23.076 281.102,0 221.845,0 162.588,0 106.878,23.076 64.977,64.977 23.076,106.878 0,162.588 0,221.845 c 0,59.257 23.076,114.968 64.977,156.869 41.901,41.9 97.611,64.977 156.868,64.977 59.257,0 114.967,-23.076 156.868,-64.977 41.9,-41.901 64.977,-97.612 64.977,-156.869 0,-59.257 -23.076,-114.967 -64.976,-156.868 z M 221.845,429.69 C 107.239,429.69 14,336.451 14,221.845 14,107.239 107.239,14 221.845,14 c 114.606,0 207.845,93.238 207.845,207.845 0,114.607 -93.238,207.845 -207.845,207.845 z"
         id="path4" /><path
         style="fill:#c79532"
         inkscape:connector-curvature="0"
         d="m 216.896,157.502 c 1.367,1.366 3.158,2.05 4.95,2.05 1.791,0 3.583,-0.684 4.95,-2.05 l 37.748,-37.748 c 2.733,-2.734 2.733,-7.166 0,-9.9 L 226.796,72.106 c -2.732,-2.731 -7.166,-2.733 -9.9,0 l -37.749,37.748 c -1.313,1.313 -2.05,3.094 -2.05,4.95 0,1.856 0.737,3.637 2.05,4.95 z m 4.949,-70.547 27.849,27.849 -27.849,27.849 -27.849,-27.849 z"
         id="path6" /><path
         style="fill:#c79532"
         inkscape:connector-curvature="0"
         d="m 232.668,173.274 37.748,37.748 c 1.367,1.366 3.159,2.05 4.95,2.05 1.791,0 3.583,-0.684 4.95,-2.05 l 37.748,-37.748 c 2.733,-2.734 2.733,-7.166 0,-9.9 l -37.748,-37.748 c -2.734,-2.732 -7.166,-2.732 -9.9,0 l -37.748,37.748 c -2.734,2.734 -2.734,7.166 0,9.9 z m 42.698,-32.798 27.849,27.849 -27.849,27.849 -27.849,-27.849 z"
         id="path8" /><path
         style="fill:#c79532"
         inkscape:connector-curvature="0"
         d="m 333.836,179.146 c -2.732,-2.732 -7.165,-2.732 -9.899,0 l -37.748,37.748 c -2.733,2.734 -2.733,7.166 0,9.899 l 37.748,37.749 c 1.313,1.313 3.094,2.051 4.95,2.051 1.856,0 3.637,-0.737 4.95,-2.05 l 37.749,-37.749 c 1.313,-1.313 2.05,-3.094 2.05,-4.95 0,-1.856 -0.737,-3.637 -2.051,-4.95 z m -4.95,70.548 -27.849,-27.85 27.849,-27.849 27.85,27.849 z"
         id="path10" /><path
         style="fill:#c79532"
         inkscape:connector-curvature="0"
         d="m 397.44,197.001 c -0.369,-2.629 -2.193,-4.823 -4.71,-5.666 -2.52,-0.844 -5.295,-0.189 -7.173,1.688 l -3.149,3.15 -27.849,-27.849 22.251,-22.25 c 2.187,-2.188 2.679,-5.551 1.211,-8.273 -3.761,-6.971 -8.029,-13.752 -12.688,-20.154 -1.204,-1.655 -3.072,-2.7 -5.113,-2.86 -2.042,-0.163 -4.049,0.582 -5.497,2.028 l -25.837,25.838 -27.849,-27.849 25.836,-25.835 c 1.448,-1.448 2.189,-3.456 2.029,-5.497 -0.16,-2.041 -1.205,-3.909 -2.86,-5.114 -6.415,-4.666 -13.196,-8.935 -20.155,-12.687 -2.722,-1.468 -6.085,-0.976 -8.271,1.211 l -22.25,22.249 -27.849,-27.849 3.141,-3.14 c 1.877,-1.878 2.53,-4.655 1.688,-7.173 -0.842,-2.518 -3.037,-4.341 -5.666,-4.71 -16.538,-2.317 -33.371,-2.298 -49.679,-0.008 -2.628,0.368 -4.822,2.192 -5.665,4.71 -0.842,2.518 -0.188,5.294 1.688,7.172 l 3.149,3.148 -27.849,27.849 -22.246,-22.245 c -2.187,-2.186 -5.551,-2.678 -8.272,-1.211 -6.961,3.754 -13.743,8.022 -20.154,12.686 -1.655,1.204 -2.701,3.073 -2.861,5.113 -0.16,2.041 0.581,4.05 2.029,5.498 l 25.832,25.832 -27.849,27.849 -25.832,-25.832 c -1.448,-1.448 -3.463,-2.193 -5.497,-2.029 -2.041,0.16 -3.91,1.206 -5.114,2.861 -4.664,6.412 -8.932,13.193 -12.686,20.153 -1.468,2.723 -0.976,6.086 1.211,8.273 l 22.246,22.245 -27.849,27.849 -3.149,-3.149 c -1.877,-1.876 -4.654,-2.532 -7.171,-1.688 -2.518,0.842 -4.341,3.036 -4.71,5.665 -1.148,8.184 -1.731,16.542 -1.731,24.844 0,8.301 0.583,16.66 1.731,24.845 0.369,2.629 2.193,4.823 4.71,5.665 2.517,0.844 5.294,0.188 7.171,-1.688 l 3.149,-3.149 27.849,27.849 -22.246,22.245 c -2.187,2.188 -2.68,5.551 -1.211,8.273 3.756,6.965 8.025,13.745 12.686,20.152 1.204,1.656 3.072,2.701 5.113,2.861 2.042,0.166 4.049,-0.581 5.497,-2.028 l 25.832,-25.832 27.849,27.849 -25.831,25.834 c -1.448,1.447 -2.189,3.456 -2.029,5.497 0.16,2.04 1.206,3.909 2.861,5.113 6.406,4.659 13.187,8.928 20.154,12.686 2.724,1.469 6.086,0.976 8.273,-1.211 l 22.246,-22.246 27.849,27.849 -3.149,3.15 c -1.876,1.877 -2.53,4.654 -1.688,7.171 0.843,2.518 3.037,4.342 5.665,4.71 8.184,1.149 16.543,1.731 24.845,1.731 8.243,0 16.599,-0.586 24.835,-1.74 2.629,-0.369 4.822,-2.193 5.665,-4.711 0.843,-2.517 0.189,-5.294 -1.688,-7.172 l -3.141,-3.14 27.849,-27.849 22.249,22.25 c 2.188,2.187 5.554,2.681 8.272,1.211 6.954,-3.749 13.734,-8.018 20.154,-12.687 1.655,-1.204 2.701,-3.072 2.861,-5.113 0.16,-2.041 -0.581,-4.05 -2.029,-5.498 l -25.836,-25.835 27.849,-27.849 25.837,25.838 c 1.447,1.446 3.453,2.194 5.497,2.028 2.041,-0.16 3.909,-1.205 5.114,-2.86 4.66,-6.407 8.929,-13.188 12.687,-20.154 1.468,-2.723 0.976,-6.086 -1.211,-8.273 l -22.251,-22.25 27.849,-27.849 3.149,3.15 c 1.878,1.877 4.653,2.532 7.173,1.688 2.517,-0.843 4.341,-3.037 4.71,-5.666 1.147,-8.187 1.729,-16.546 1.729,-24.845 0,-8.299 -0.582,-16.656 -1.73,-24.843 z m -12.529,34.078 c -2.497,-0.956 -5.437,-0.425 -7.453,1.589 l -37.748,37.748 c -2.733,2.734 -2.733,7.166 0,9.9 l 23.454,23.453 c -1.429,2.457 -2.925,4.883 -4.481,7.266 l -24.846,-24.847 c -2.734,-2.732 -7.166,-2.732 -9.9,0 l -37.748,37.748 c -1.313,1.313 -2.05,3.094 -2.05,4.95 0,1.856 0.737,3.637 2.051,4.95 l 24.845,24.844 c -2.385,1.559 -4.811,3.054 -7.266,4.481 l -23.452,-23.453 c -2.734,-2.732 -7.166,-2.732 -9.9,0 l -37.748,37.748 c -2.014,2.015 -2.544,4.95 -1.59,7.45 -6.18,0.351 -12.323,0.347 -18.467,0.004 0.956,-2.5 0.426,-5.438 -1.589,-7.454 l -37.748,-37.748 c -2.733,-2.732 -7.166,-2.732 -9.899,0 l -23.448,23.449 c -2.458,-1.429 -4.883,-2.925 -7.266,-4.48 l 24.841,-24.841 c 2.734,-2.734 2.734,-7.166 0,-9.9 l -37.748,-37.748 c -2.733,-2.732 -7.166,-2.732 -9.899,0 l -24.841,24.841 c -1.557,-2.383 -3.052,-4.809 -4.48,-7.265 l 23.448,-23.448 c 2.734,-2.734 2.734,-7.166 0,-9.9 L 66.235,232.668 c -2.015,-2.014 -4.954,-2.546 -7.453,-1.589 -0.172,-3.077 -0.259,-6.16 -0.259,-9.234 0,-3.074 0.086,-6.156 0.259,-9.233 2.5,0.956 5.438,0.426 7.453,-1.589 l 37.748,-37.748 c 2.734,-2.734 2.734,-7.166 0,-9.9 L 80.535,139.927 c 1.428,-2.456 2.924,-4.882 4.48,-7.266 l 24.841,24.842 c 1.313,1.313 3.093,2.05 4.95,2.05 1.857,0 3.637,-0.737 4.95,-2.05 l 37.748,-37.748 c 2.734,-2.734 2.734,-7.166 0,-9.899 L 132.66,85.013 c 2.384,-1.557 4.809,-3.053 7.266,-4.48 l 23.449,23.448 c 2.733,2.732 7.166,2.732 9.899,0 l 37.748,-37.748 c 2.015,-2.016 2.545,-4.953 1.589,-7.453 6.144,-0.344 12.286,-0.346 18.465,0.004 -0.953,2.499 -0.423,5.435 1.591,7.449 l 37.748,37.748 c 2.734,2.732 7.167,2.733 9.899,0 l 23.453,-23.452 c 2.456,1.428 4.882,2.924 7.266,4.48 l -24.845,24.845 c -1.313,1.313 -2.051,3.094 -2.051,4.95 0,1.856 0.737,3.637 2.05,4.95 l 37.748,37.748 c 2.734,2.732 7.166,2.732 9.9,0 l 24.846,-24.847 c 1.557,2.382 3.053,4.809 4.481,7.266 l -23.454,23.453 c -2.733,2.734 -2.733,7.166 0,9.9 l 37.748,37.748 c 2.017,2.015 4.956,2.544 7.453,1.589 0.172,3.077 0.259,6.159 0.259,9.233 0,3.074 -0.085,6.157 -0.257,9.235 z"
         id="path12" /><path
         style="fill:#c79532"
         inkscape:connector-curvature="0"
         d="m 163.375,211.022 c 1.367,1.366 3.158,2.05 4.95,2.05 1.792,0 3.583,-0.684 4.95,-2.05 l 37.748,-37.748 c 2.734,-2.734 2.734,-7.166 0,-9.9 l -37.748,-37.748 c -2.733,-2.732 -7.166,-2.732 -9.899,0 l -37.748,37.748 c -2.734,2.734 -2.734,7.166 0,9.9 z m 4.949,-70.546 27.849,27.849 -27.849,27.849 -27.849,-27.849 z"
         id="path14" /><path
         style="fill:#c79532"
         inkscape:connector-curvature="0"
         d="m 216.896,179.146 -37.749,37.748 c -1.313,1.313 -2.05,3.094 -2.05,4.95 0,1.856 0.737,3.637 2.05,4.95 l 37.749,37.749 c 1.313,1.313 3.093,2.05 4.95,2.05 1.857,0 3.637,-0.737 4.95,-2.051 l 37.748,-37.749 c 2.733,-2.733 2.733,-7.165 0,-9.899 l -37.748,-37.748 c -2.733,-2.731 -7.166,-2.732 -9.9,0 z m 4.949,70.548 -27.849,-27.85 27.849,-27.849 27.849,27.849 z"
         id="path16" /><path
         style="fill:#c79532"
         inkscape:connector-curvature="0"
         d="m 280.316,232.668 c -2.734,-2.732 -7.166,-2.732 -9.9,0 l -37.748,37.748 c -2.733,2.734 -2.733,7.166 0,9.9 l 37.748,37.748 c 1.367,1.366 3.159,2.05 4.95,2.05 1.791,0 3.583,-0.684 4.95,-2.05 l 37.748,-37.748 c 2.733,-2.734 2.733,-7.166 0,-9.9 z m -4.95,70.547 -27.849,-27.849 27.849,-27.849 27.849,27.849 z"
         id="path18" /><path
         style="fill:#c79532"
         inkscape:connector-curvature="0"
         d="m 157.501,216.895 -37.748,-37.748 c -2.733,-2.732 -7.166,-2.732 -9.899,0 l -37.748,37.748 c -2.734,2.734 -2.734,7.166 0,9.899 l 37.748,37.749 c 1.313,1.313 3.093,2.051 4.95,2.051 1.857,0 3.637,-0.737 4.95,-2.051 l 37.748,-37.749 c 2.733,-2.733 2.733,-7.165 -0.001,-9.899 z m -42.698,32.799 -27.849,-27.85 27.849,-27.849 27.849,27.849 z"
         id="path20" /><path
         style="fill:#c79532"
         inkscape:connector-curvature="0"
         d="m 211.022,270.416 -37.748,-37.748 c -2.733,-2.732 -7.166,-2.732 -9.899,0 l -37.748,37.748 c -2.734,2.734 -2.734,7.166 0,9.9 l 37.748,37.748 c 1.367,1.366 3.158,2.05 4.95,2.05 1.792,0 3.583,-0.684 4.95,-2.05 l 37.748,-37.748 c 2.733,-2.734 2.733,-7.166 -0.001,-9.9 z m -42.698,32.799 -27.849,-27.849 27.849,-27.849 27.849,27.849 z"
         id="path22" /><path
         style="fill:#c79532"
         inkscape:connector-curvature="0"
         d="m 226.796,286.188 c -2.732,-2.731 -7.166,-2.732 -9.9,0 l -37.749,37.748 c -1.313,1.313 -2.05,3.094 -2.05,4.95 0,1.856 0.737,3.637 2.05,4.95 l 37.749,37.748 c 1.367,1.366 3.158,2.05 4.95,2.05 1.791,0 3.583,-0.684 4.95,-2.05 l 37.748,-37.748 c 2.733,-2.734 2.733,-7.166 0,-9.9 z m -4.951,70.547 -27.849,-27.849 27.849,-27.849 27.849,27.849 z"
         id="path24" /></g></g><g
     inkscape:groupmode="layer"
     id="layer3"
     inkscape:label="Layer 3"><text
       xml:space="preserve"
       style="font-style:normal;font-variant:normal;font-weight:normal;font-stretch:normal;font-size:409.0461731px;line-height:1.25;font-family:Arial;-inkscape-font-specification:Arial;letter-spacing:0px;word-spacing:0px;fill:#171d0b;fill-opacity:0.5970149;stroke:none;stroke-width:10.22615242"
       x="99.523857"
       y="359.0632"
       id="text3795"
       transform="scale(1.0399826,0.96155454)"><tspan
         sodipodi:role="line"
         id="tspan3793"
         x="99.523857"
         y="359.0632"
         style="font-style:normal;font-variant:normal;font-weight:normal;font-stretch:normal;font-family:Arial;-inkscape-font-specification:Arial;fill:#171d0b;fill-opacity:0.5970149;stroke-width:10.22615242">$</tspan></text>
</g></svg>